<svg width="800" height="400" viewBox="0 0 800 400" xmlns="http://www.w3.org/2000/svg">
  <defs>
    <radialGradient id="bg2" cx="50%" cy="50%" r="70%">
      <stop offset="0%" stop-color="#0f1419"/>
      <stop offset="100%" stop-color="#08080f"/>
    </radialGradient>
  </defs>
  <rect width="800" height="400" fill="url(#bg2)"/>
  <rect x="120" y="50" width="20" height="20" rx="4" fill="#1a1a2e"/>
  <rect x="145" y="50" width="20" height="20" rx="4" fill="#16213e"/>
  <rect x="170" y="50" width="20" height="20" rx="4" fill="#0f3460"/>
  <rect x="195" y="50" width="20" height="20" rx="4" fill="#1a1a2e"/>
  <rect x="120" y="75" width="20" height="20" rx="4" fill="#16213e"/>
  <rect x="120" y="100" width="20" height="20" rx="4" fill="#0f3460"/>
  <rect x="120" y="125" width="20" height="20" rx="4" fill="#1a1a2e"/>
  <rect x="120" y="150" width="20" height="20" rx="4" fill="#16213e"/>
  <rect x="120" y="300" width="20" height="20" rx="4" fill="#1a1a2e"/>
  <rect x="120" y="325" width="20" height="20" rx="4" fill="#0f3460"/>
  <rect x="145" y="325" width="20" height="20" rx="4" fill="#16213e"/>
  <rect x="170" y="325" width="20" height="20" rx="4" fill="#1a1a2e"/>
  <rect x="195" y="325" width="20" height="20" rx="4" fill="#0f3460"/>
  <rect x="120" y="175" width="20" height="20" rx="4" fill="#1a1a2e"/>
  <rect x="120" y="200" width="20" height="20" rx="4" fill="#16213e"/>
  <rect x="120" y="225" width="20" height="20" rx="4" fill="#0f3460"/>
  <rect x="120" y="250" width="20" height="20" rx="4" fill="#1a1a2e"/>
  <rect x="120" y="275" width="20" height="20" rx="4" fill="#16213e"/>
  <g>
    <rect x="250" y="180" width="20" height="20" rx="4" fill="#3b82f6"/>
    <rect x="275" y="180" width="20" height="20" rx="4" fill="#3b82f6"/>
    <rect x="300" y="180" width="20" height="20" rx="4" fill="#2d6cdf"/>
    <rect x="325" y="180" width="20" height="20" rx="4" fill="#2050b0"/>
    <rect x="350" y="180" width="20" height="20" rx="4" fill="#1a4090"/>
    <rect x="350" y="155" width="20" height="20" rx="4" fill="#1a4090"/>
    <rect x="350" y="130" width="20" height="20" rx="4" fill="#1a4090"/>
    <rect x="350" y="105" width="20" height="20" rx="4" fill="#1a4090"/>
  </g>
  <circle cx="490" cy="200" r="10" fill="#5B9BFF" opacity="0.8"/>
  <circle cx="490" cy="200" r="18" fill="#5B9BFF" opacity="0.2"/>
  <text x="400" y="55" text-anchor="middle" fill="#5B9BFF" font-family="system-ui" font-size="28" font-weight="700">Snake Reef</text>
</svg>
